<svg xmlns="http://www.w3.org/2000/svg" viewBox="0 0 32 32" width="32" height="32">
  <defs>
    <linearGradient id="kh-g" x1="0" y1="0" x2="1" y2="1">
      <stop offset="0%" stop-color="#E0484F"/>
      <stop offset="100%" stop-color="#D5256E"/>
    </linearGradient>
  </defs>
  <rect width="32" height="32" rx="10" fill="url(#kh-g)"/>
  <g transform="translate(4 4)" stroke="#ffffff" stroke-width="2.5" stroke-linecap="round" stroke-linejoin="round" fill="none">
    <path d="M10 12h4"/>
    <path d="M10 8h4"/>
    <path d="M14 21v-3a2 2 0 0 0-4 0v3"/>
    <path d="M6 10H4a2 2 0 0 0-2 2v7a2 2 0 0 0 2 2h16a2 2 0 0 0 2-2V9a2 2 0 0 0-2-2h-2"/>
    <path d="M6 21V5a2 2 0 0 1 2-2h8a2 2 0 0 1 2 2v16"/>
  </g>
</svg>
